<? xml version = "1.0" encoding = "UTF-8" ?>
    <svg width="800px" height="800px" viewBox="0 0 24 24" version="1.1" xmlns="http://www.w3.org/2000/svg" xmlns:xlink="http://www.w3.org/1999/xlink">
        <path d="M10.5,6 C10.5,3.24 9.48,2 8.05,2 C6.02,2 4.5,4.24 4.5,6.24 C4.5,7.86 4.84,8.86 5.26,9.46 L4.64,19.94 C4.6,20.5 5.03,21 5.58,21 L6.42,21 C6.97,21 7.4,20.5 7.36,19.94 L6.74,9.46 C7.16,8.86 7.5,7.86 7.5,6.24 C7.5,4.24 6.62,2 4.59,2 C3.16,2 2.5,3.24 2.5,6 L2.5,15.86 C2.5,16.41 2.95,16.86 3.5,16.86 L4.5,16.86 C5.05,16.86 5.5,16.41 5.5,15.86 L5.5,6 M19.5,4.96 C19.5,2.2 18.48,0.96 17.05,0.96 C15.02,0.96 13.5,3.2 13.5,5.2 C13.5,6.82 13.84,7.82 14.26,8.42 L13.64,18.9 C13.6,19.46 14.03,19.96 14.58,19.96 L15.42,19.96 C15.97,19.96 16.4,19.46 16.36,18.9 L15.74,8.42 C16.16,7.82 16.5,6.82 16.5,5.2 C16.5,3.2 15.62,0.96 13.59,0.96 C12.16,0.96 11.5,2.2 11.5,4.96 L11.5,14.82 C11.5,15.38 11.95,15.82 12.5,15.82 L13.5,15.82 C14.05,15.82 14.5,15.38 14.5,14.82 L14.5,4.96" fill="#000000"></path>
    </svg>